<?xml version="1.0" encoding="UTF-8"?>
<svg id="Layer_1" data-name="Layer 1" xmlns="http://www.w3.org/2000/svg" viewBox="0 0 850.39 850.39">
  <defs>
    <style>
      .cls-1 {
        fill: #388b49;
      }

      .cls-2 {
        fill: #83c452;
      }
    </style>
  </defs>
  <path class="cls-2" d="M47.4,502.8v-171.8h68.8v33.2h-33.8v33.4h32.4v32.4h-32.4v39.4h36v33.4H47.4Z"/>
  <path class="cls-2" d="M139.7,492.6c-7.53-7.87-11.3-18.67-11.3-32.4v-79.2c0-17.07,3.4-29.93,10.2-38.6,6.8-8.67,17.47-13,32-13,12.67,0,22.87,3.47,30.6,10.4,7.73,6.93,11.6,16.93,11.6,30v29.6h-34.2v-25.4c0-4.93-.6-8.33-1.8-10.2-1.2-1.87-3.27-2.8-6.2-2.8s-5.17,1.07-6.3,3.2c-1.13,2.13-1.7,5.27-1.7,9.4v86.2c0,4.53.67,7.83,2,9.9,1.33,2.07,3.33,3.1,6,3.1,5.33,0,8-4.33,8-13v-31h34.6v32.4c0,28.8-14.47,43.2-43.4,43.2-12.53,0-22.57-3.93-30.1-11.8Z"/>
  <path class="cls-2" d="M234,491.7c-7.2-8.47-10.8-20.37-10.8-35.7v-81.8c0-14.8,3.6-25.97,10.8-33.5,7.2-7.53,17.73-11.3,31.6-11.3s24.4,3.77,31.6,11.3c7.2,7.53,10.8,18.7,10.8,33.5v81.8c0,15.47-3.6,27.4-10.8,35.8-7.2,8.4-17.73,12.6-31.6,12.6s-24.4-4.23-31.6-12.7ZM271.8,468.8c1.07-2.67,1.6-6.4,1.6-11.2v-84c0-3.73-.5-6.77-1.5-9.1-1-2.33-3.03-3.5-6.1-3.5-5.73,0-8.6,4.33-8.6,13v83.8c0,4.93.6,8.67,1.8,11.2,1.2,2.53,3.4,3.8,6.6,3.8s5.13-1.33,6.2-4Z"/>
  <path class="cls-1" d="M321.8,502.8v-171.8h68.8v33.2h-33.8v33.4h32.4v32.4h-32.4v39.4h36v33.4h-71Z"/>
  <path class="cls-1" d="M452.8,503c-5.07.93-7.93,1.4-8.6,1.4-13.87,0-24.4-3.96-31.6-11.9-7.2-7.93-10.8-19.57-10.8-34.9v-83c0-14.8,3.63-26.03,10.9-33.7,7.27-7.67,17.77-11.5,31.5-11.5s24.23,3.83,31.5,11.5c7.27,7.67,10.9,18.9,10.9,33.7v83c0,14.13-3.2,25.33-9.6,33.6l14.8,9.4-11.6,20.4-27.4-18ZM450.6,468c.93-3.2,1.4-7.33,1.4-12.4v-80.4c0-4.4-.57-7.87-1.7-10.4-1.13-2.53-3.23-3.8-6.3-3.8-5.47,0-8.2,4.67-8.2,14v81.2c0,4.8.53,8.77,1.6,11.9,1.07,3.13,3.33,4.7,6.8,4.7s5.47-1.6,6.4-4.8Z"/>
  <path class="cls-1" d="M511.29,492.4c-6.87-8-10.3-19.87-10.3-35.6v-125.8h33.4v124.4c0,5.47.53,9.73,1.6,12.8,1.07,3.07,3.33,4.6,6.8,4.6s5.73-1.5,6.8-4.5c1.07-3,1.6-7.3,1.6-12.9v-124.4h33.4v125.8c0,15.73-3.43,27.6-10.3,35.6-6.87,8-17.37,12-31.5,12s-24.63-4-31.5-12Z"/>
  <path class="cls-1" d="M596.19,502.8v-171.8h33.2v171.8h-33.2Z"/>
  <path class="cls-1" d="M657.99,502.8v-138.8h-20.4v-33h75.2v33h-20.4v138.8h-34.4Z"/>
  <path class="cls-1" d="M743.19,502.8v-56.6l-27.4-115.2h34l9.6,58.2,9.6-58.2h34l-27.4,115.2v56.6h-32.4Z"/>
</svg>